<svg width="825" height="673" viewBox="0 0 825 673" fill="none" xmlns="http://www.w3.org/2000/svg">
<g clip-path="url(#clip0)">
<path opacity="0.4" d="M696.293 258.742C707.211 258.742 716.061 249.136 716.061 237.287C716.061 225.437 707.211 215.831 696.293 215.831C685.376 215.831 676.525 225.437 676.525 237.287C676.525 249.136 685.376 258.742 696.293 258.742Z" fill="#DE9E48"/>
<path opacity="0.4" d="M279.501 140.702C295.065 140.702 307.681 127.008 307.681 110.116C307.681 93.2244 295.065 79.5308 279.501 79.5308C263.938 79.5308 251.321 93.2244 251.321 110.116C251.321 127.008 263.938 140.702 279.501 140.702Z" fill="#DE9E48"/>
<path opacity="0.4" d="M227.347 146.18C238.265 146.18 247.115 136.574 247.115 124.724C247.115 112.875 238.265 103.269 227.347 103.269C216.43 103.269 207.579 112.875 207.579 124.724C207.579 136.574 216.43 146.18 227.347 146.18Z" fill="#DE9E48"/>
<path d="M712.85 477.215C697.23 495.775 696.663 522.812 696.663 522.812C696.663 522.812 721.42 519.756 737.04 501.196C752.66 482.636 753.227 455.599 753.227 455.599C753.227 455.599 728.469 458.654 712.85 477.215Z" fill="#3F3D56"/>
<path d="M721.673 482.555C716.947 507.164 697.079 523.484 697.079 523.484C697.079 523.484 684.874 499.907 689.601 475.299C694.327 450.69 714.195 434.37 714.195 434.37C714.195 434.37 726.4 457.947 721.673 482.555Z" fill="#DE9E48"/>
<path d="M701.387 228.63V521.985L611.292 602.764H150.375V295.237L284.863 228.63H701.387Z" fill="#3F3D56"/>
<path opacity="0.1" d="M701.387 228.63V229.805L669.044 253.302L611.292 295.237H150.375L284.863 228.63H701.387Z" fill="black"/>
<path opacity="0.1" d="M701.387 228.63V521.985L611.292 602.764L611.945 294.529L669.044 253.302L700.865 228.63H701.387Z" fill="black"/>
<path d="M579.955 269.019H299.227L320.118 256.264H589.096L579.955 269.019Z" fill="#2F2E41"/>
<path d="M822.244 618.72C822.244 618.72 827.686 643.422 822.739 644.496C817.791 645.57 793.548 645.223 787.611 646.297C781.674 647.371 769.305 645.57 769.305 640.737C769.305 635.904 782.169 632.682 782.169 632.682C782.169 632.682 800.475 621.942 800.97 621.405C801.464 620.868 822.244 618.72 822.244 618.72Z" fill="#2F2E41"/>
<path d="M817.791 473.197C817.791 473.197 816.307 491.454 816.307 493.065C816.307 494.676 817.791 519.915 816.307 520.989C814.823 522.063 817.296 529.58 817.296 532.265C817.296 534.95 825.212 579.52 823.233 596.704C821.254 613.887 826.202 612.276 824.718 613.887C823.233 615.498 823.233 615.498 823.233 618.72C823.233 621.942 807.401 624.627 807.401 624.627L790.085 505.953L798.99 470.512L817.791 473.197Z" fill="#575A89"/>
<path opacity="0.1" d="M817.791 473.197C817.791 473.197 816.307 491.454 816.307 493.065C816.307 494.676 817.791 519.915 816.307 520.989C814.823 522.063 817.296 529.58 817.296 532.265C817.296 534.95 825.212 579.52 823.233 596.704C821.254 613.887 826.202 612.276 824.718 613.887C823.233 615.498 823.233 615.498 823.233 618.72C823.233 621.942 807.401 624.627 807.401 624.627L790.085 505.953L798.99 470.512L817.791 473.197Z" fill="black"/>
<path d="M815.317 626.238C815.317 626.238 820.265 645.569 815.317 646.643C810.37 647.717 786.127 645.413 780.19 646.487C774.253 647.561 761.884 647.717 761.884 642.885C761.884 638.052 774.748 634.83 774.748 634.83C774.748 634.83 793.053 624.09 793.548 623.553C794.043 623.016 815.317 626.238 815.317 626.238Z" fill="#2F2E41"/>
<path d="M822.244 451.717C822.244 451.717 828.181 467.29 821.255 475.345C814.328 483.4 806.412 499.509 806.412 500.583C806.412 501.657 820.265 608.517 818.286 615.498C816.307 622.479 816.802 626.775 817.296 627.849C817.791 628.923 812.349 634.83 806.412 634.83C800.475 634.83 791.569 629.997 790.58 625.701C789.59 621.405 792.064 584.353 791.569 577.372C791.075 570.391 788.601 560.189 787.611 558.041C786.622 555.893 781.179 553.745 780.19 547.301C779.2 540.857 771.284 458.698 773.758 456.013C776.232 453.328 822.244 451.717 822.244 451.717Z" fill="#575A89"/>
<path d="M784.643 328.211C793.933 328.211 801.464 320.036 801.464 309.953C801.464 299.87 793.933 291.695 784.643 291.695C775.352 291.695 767.821 299.87 767.821 309.953C767.821 320.036 775.352 328.211 784.643 328.211Z" fill="#FFB9B9"/>
<path d="M795.033 319.082C795.033 319.082 791.569 338.95 794.043 341.098C796.517 343.246 775.242 346.468 775.242 346.468C775.242 346.468 772.769 320.156 772.274 317.471C771.779 314.786 795.033 319.082 795.033 319.082Z" fill="#FFB9B9"/>
<path d="M772.274 344.857C772.274 344.857 778.211 326.062 802.454 331.432C802.454 331.432 806.907 333.043 805.422 334.654C803.938 336.265 802.454 336.265 804.433 337.876C806.412 339.487 808.886 337.876 807.401 339.487C805.917 341.098 820.76 350.764 819.77 369.021C818.781 387.279 823.233 413.054 819.77 417.35C816.307 421.646 822.244 440.441 821.255 444.2C820.265 447.958 827.191 452.791 824.223 454.402C821.254 456.013 767.821 465.679 766.337 454.402C764.853 443.126 765.842 451.18 764.358 448.495C762.874 445.81 762.379 440.978 763.368 435.071C764.358 429.164 766.832 414.665 765.842 409.295C764.853 403.926 765.842 358.819 768.811 353.449C771.779 348.079 772.274 344.857 772.274 344.857Z" fill="#DE9E48"/>
<path d="M782.664 475.882C782.664 475.882 790.085 506.49 780.685 506.49C771.284 506.49 771.779 474.808 771.779 474.808L782.664 475.882Z" fill="#FFB9B9"/>
<path d="M777.221 309.953C777.221 311.51 779.299 312.498 782.52 312.724H782.525C783.891 312.808 785.26 312.779 786.622 312.638C788.68 312.434 789.531 314.533 789.882 317.304C790.456 321.874 789.655 328.28 790.58 329.284C791.856 330.67 801.162 329.279 804.072 326.138C804.524 325.697 804.826 325.103 804.928 324.452C805.233 322.533 806.105 320.775 807.411 319.441C809.128 317.406 811.572 315.151 814.328 311.564C819.275 305.12 814.328 304.583 812.844 299.75C811.359 294.917 808.886 293.306 808.886 290.084C808.886 286.862 797.506 284.178 788.106 284.715C778.706 285.252 780.685 298.139 780.685 298.139C780.685 298.139 780.126 299.696 779.458 301.705C778.554 304.225 777.82 306.813 777.261 309.448C777.238 309.615 777.225 309.784 777.221 309.953Z" fill="#2F2E41"/>
<path opacity="0.1" d="M779.2 352.912C779.2 352.912 796.022 351.838 797.506 378.687C798.99 405.537 798.496 430.775 798.496 431.312C798.496 431.849 791.569 482.863 785.137 482.863C778.706 482.863 773.758 481.789 772.274 479.104C770.79 476.419 776.232 437.756 776.232 437.756C776.232 437.756 778.706 396.945 774.748 384.057C770.79 371.169 770.295 354.523 779.2 352.912Z" fill="black"/>
<path d="M776.727 350.227C776.727 350.227 793.548 349.153 795.032 376.002C796.517 402.852 796.022 428.09 796.022 428.627C796.022 429.164 789.095 480.178 782.664 480.178C776.232 480.178 771.284 479.104 769.8 476.419C768.316 473.734 773.758 435.071 773.758 435.071C773.758 435.071 776.232 394.26 772.274 381.372C768.316 368.485 767.821 351.838 776.727 350.227Z" fill="#DE9E48"/>
<path d="M497.788 87.7412C497.788 87.7412 490.457 65.1971 485.162 72.2698C479.868 79.3424 493.308 91.2775 493.308 91.2775L497.788 87.7412Z" fill="#A0616A"/>
<path d="M532.406 65.6391L527.996 67.413C527.996 67.413 525.89 77.5742 526.704 79.3424C527.519 81.1106 527.926 79.7844 526.704 83.3208C525.482 86.8571 521.817 96.1399 521.41 97.4661C521.002 98.7922 497.788 89.0673 497.788 84.2049C497.788 84.2049 492.901 90.3934 490.457 91.7195C490.457 91.7195 517.337 112.937 521.002 115.59C524.668 118.242 526.704 116.916 529.962 113.822C533.221 110.727 547.068 85.0889 547.068 85.0889L532.406 65.6391Z" fill="#575A89"/>
<path d="M520.595 222.564C520.595 222.564 521.002 227.426 521.817 227.868C522.632 228.31 528.741 239.361 521.817 241.571C514.893 243.781 510.821 242.897 509.192 243.782C507.562 244.666 479.053 246.434 478.646 241.571C478.239 236.709 492.493 235.825 492.493 235.825C492.493 235.825 505.526 226.542 507.562 221.679C509.599 216.817 520.595 222.564 520.595 222.564Z" fill="#2F2E41"/>
<path d="M603.272 231.404C603.272 231.404 613.046 249.528 610.603 251.738C608.159 253.948 584.361 262.003 580.872 262.347C576.392 262.789 573.134 258.811 576.799 256.601C580.464 254.39 588.203 245.108 588.203 242.013V234.057L603.272 231.404Z" fill="#2F2E41"/>
<path d="M612.639 112.938C612.639 112.938 621.192 124.431 607.752 142.996L585.352 173.939C585.352 173.939 599.199 197.809 599.606 210.186C600.014 222.564 602.865 219.911 603.679 225.216C604.494 230.52 608.159 227.868 605.308 231.846C602.457 235.825 591.868 239.361 588.61 236.267C587.489 235.154 586.614 233.781 586.05 232.251C585.486 230.72 585.247 229.071 585.352 227.426C585.352 225.658 579.65 215.491 579.243 212.397C578.836 209.302 563.766 184.106 563.766 184.106C563.766 184.106 558.879 169.077 564.581 160.678C570.283 152.279 574.051 140.367 574.051 140.367C574.051 140.367 557.25 162.446 545.439 167.751C545.439 167.751 540.959 168.635 541.774 170.845C542.588 173.055 541.774 174.381 540.552 176.591C539.33 178.802 530.777 204.44 527.926 211.071C525.075 217.701 526.297 221.68 523.039 223.89C519.781 226.1 505.119 224.332 505.119 222.122C505.119 219.911 507.155 214.165 508.377 211.071C509.599 207.976 519.373 172.171 518.559 165.982C517.744 159.794 518.966 151.395 525.075 147.859C531.184 144.322 562.137 115.59 563.766 115.59C565.395 115.59 612.639 112.938 612.639 112.938Z" fill="#2F2E41"/>
<path d="M530.777 43.5371C540.224 43.5371 547.883 35.225 547.883 24.9714C547.883 14.7179 540.224 6.4057 530.777 6.4057C521.33 6.4057 513.672 14.7179 513.672 24.9714C513.672 35.225 521.33 43.5371 530.777 43.5371Z" fill="#A0616A"/>
<path d="M544.624 26.7396C544.624 26.7396 549.919 36.9065 556.435 38.2327C562.952 39.5588 539.33 59.8927 539.33 59.8927C539.33 59.8927 533.628 40.4429 528.741 39.5588C523.853 38.6747 544.624 26.7396 544.624 26.7396Z" fill="#A0616A"/>
<path d="M527.926 68.2914C527.926 74.0379 543.81 90.3934 543.81 90.3934L558.879 104.097C558.879 104.097 559.286 108.959 560.915 109.401C562.544 109.843 564.581 109.843 562.952 112.495C561.323 115.148 557.25 120.894 560.915 121.778C562.02 121.961 563.134 122.076 564.251 122.123C565.228 122.185 566.377 122.242 567.668 122.295C570.682 122.41 574.453 122.486 578.538 122.455C579.699 122.45 580.88 122.435 582.081 122.41C597.48 122.079 615.319 120.156 613.861 113.822C611.417 103.213 613.046 99.6762 607.752 93.9297C602.457 88.1832 593.905 68.2913 593.905 68.2913C593.905 68.2913 576.799 36.9064 562.544 36.9064L559.584 36.0621C558.208 35.6688 556.753 35.7551 555.425 36.3088C554.097 36.8625 552.963 37.8557 552.183 39.1476C549.324 43.873 544.816 50.9722 542.181 53.2619C538.108 56.7983 537.473 54.2609 537.473 54.2609C537.473 54.2609 527.926 62.5448 527.926 68.2914Z" fill="#575A89"/>
<path d="M564.174 135.482C564.174 135.482 552.363 155.373 559.693 158.91C567.024 162.446 571.097 138.134 571.097 138.134L564.174 135.482Z" fill="#A0616A"/>
<path d="M541.96 22.8744C541.303 22.7845 541.096 21.8854 540.985 21.1773C540.393 17.3854 537.79 13.7896 534.291 13.1774C532.954 12.9844 531.595 13.1033 530.303 13.5263C528.453 14.0773 526.717 15.005 525.186 16.2601C524.437 17.0031 523.571 17.5935 522.629 18.0029C521.987 18.2075 519.262 19.5226 518.625 19.7451C517.225 20.2343 516.066 21.8248 514.624 21.5099C513.245 21.2086 512.721 19.4006 512.499 17.8925C511.994 14.4566 513.806 9.3299 515.608 6.45193C516.975 4.26795 519.288 3.01106 521.601 2.19335C524.311 1.30057 527.096 0.700086 529.914 0.400612C533.719 -0.0870957 537.66 -0.345851 541.306 0.930615C544.952 2.20708 548.272 5.3296 548.953 9.42172C549.095 10.2741 549.121 11.1473 549.295 11.9927C549.719 14.0551 550.976 15.7887 551.71 17.7461C552.239 19.1837 552.484 20.7256 552.431 22.2726C552.377 23.8195 552.025 25.3371 551.398 26.7274C550.383 28.9441 548.616 31.0742 548.998 33.515L545.855 30.8252C545.401 30.5451 545.049 30.1045 544.858 29.5768C544.667 29.049 544.648 28.4662 544.806 27.9256L545.263 23.6543C545.421 22.8805 545.349 22.0722 545.059 21.345C543.662 18.6965 543.054 23.0243 541.96 22.8744Z" fill="#2F2E41"/>
<path opacity="0.1" d="M571.505 104.981L567.668 122.295C571.537 122.446 576.656 122.525 582.081 122.41C583.45 117.955 584.757 113.309 585.759 108.959C589.425 93.0457 583.315 68.7334 580.057 57.2404C576.799 45.7473 568.654 42.653 568.654 42.653C565.314 43.9277 562.16 45.7139 559.286 47.9575C553.992 51.9359 571.505 104.981 571.505 104.981Z" fill="black"/>
<path opacity="0.1" d="M568.246 104.097L564.251 122.123C565.228 122.185 566.377 122.242 567.668 122.295C570.682 122.41 574.453 122.486 578.538 122.455C580.008 117.72 581.43 112.725 582.501 108.075C586.166 92.1616 580.057 67.8493 576.799 56.3563C573.541 44.8632 566.413 57.4613 566.413 57.4613C566.413 57.4613 569.264 49.9466 563.97 53.925C558.675 57.9034 568.246 104.097 568.246 104.097Z" fill="black"/>
<path d="M567.025 41.769C567.025 41.769 575.17 44.8632 578.428 56.3563C581.686 67.8493 587.796 92.1616 584.13 108.075C580.465 123.989 572.726 143.88 572.726 143.88C572.726 143.88 564.988 137.692 562.137 139.018L569.875 104.097C569.875 104.097 552.363 51.0518 557.657 47.0734C560.531 44.8298 563.685 43.0436 567.025 41.769Z" fill="#575A89"/>
<path d="M573.096 263.493L460.416 8.64087L272.007 106.773L341.299 263.493H573.096Z" fill="#F2F2F2"/>
<path d="M422.285 108.676L322.215 160.797L325.195 167.539L425.266 115.418L422.285 108.676Z" fill="#3F3D56"/>
<path d="M448.78 168.601L348.709 220.722L351.69 227.463L451.761 175.342L448.78 168.601Z" fill="#3F3D56"/>
<path d="M466.98 73.4169L442.135 86.3574L454.058 113.323L478.903 100.383L466.98 73.4169Z" fill="#3F3D56"/>
<path d="M493.475 133.341L468.63 146.282L480.553 173.248L505.398 160.307L493.475 133.341Z" fill="#3F3D56"/>
<path d="M468.692 54.7386L458.46 86.3363L444.667 81.0742L442.779 86.903L461.925 94.2058L474.062 56.7872L468.692 54.7386Z" fill="#57B894"/>
<path d="M495.187 114.663L484.955 146.26L471.162 140.999L469.275 146.827L488.419 154.13L500.557 116.711L495.187 114.663Z" fill="#57B894"/>
<path d="M10.8743 556.811L61.7821 545.009L50.9078 489.755L3.00627e-05 501.558L10.8743 556.811Z" fill="#F2F2F2"/>
<path d="M60.3662 474.992C60.3662 474.992 41.6677 489.489 47.9005 495.287C54.1334 501.086 66.5991 477.892 66.5991 477.892L60.3662 474.992Z" fill="#FFB9B9"/>
<path d="M146.736 497.22C146.736 497.22 143.174 545.541 142.284 552.306C141.393 559.07 140.503 619.955 138.722 626.72C136.941 633.484 135.16 649.913 135.16 649.913H124.476C124.476 649.913 125.366 619.955 122.695 608.358C120.023 596.761 120.914 564.869 120.914 564.869C120.914 564.869 115.571 507.85 118.243 500.119C120.914 492.388 146.736 497.22 146.736 497.22Z" fill="#FFB9B9"/>
<path d="M132.489 647.014C132.489 647.014 136.941 649.913 136.941 651.846C136.941 653.779 136.051 658.611 136.941 660.544C137.832 662.477 144.065 670.208 140.503 672.141C136.941 674.074 120.914 672.141 120.914 672.141C120.914 672.141 121.804 658.611 122.695 657.645C123.585 656.678 121.804 647.014 121.804 647.014H132.489Z" fill="#2F2E41"/>
<path d="M78.6693 496.036C78.6693 496.036 77.5381 544.495 77.7694 551.324C78.0006 558.153 72.998 618.802 74.1147 625.733C75.2314 632.663 75.4135 649.204 75.4135 649.204L86.0394 650.422C86.0394 650.422 88.0512 620.527 91.8293 609.298C95.6073 598.07 97.806 566.253 97.806 566.253C97.806 566.253 108.633 510.158 106.725 502.165C104.816 494.172 78.6693 496.036 78.6693 496.036Z" fill="#FFB9B9"/>
<path d="M78.3504 646.625C78.3504 646.625 73.6426 649.001 73.4556 650.924C73.2687 652.846 73.6869 657.753 72.6145 659.573C71.542 661.394 64.5959 668.373 67.951 670.7C71.306 673.028 87.4317 672.932 87.4317 672.932C87.4317 672.932 87.8546 659.376 87.0626 658.313C86.2706 657.251 88.9762 647.843 88.9762 647.843L78.3504 646.625Z" fill="#2F2E41"/>
<path d="M134.27 424.739C134.27 424.739 141.393 425.705 144.064 442.134C146.736 458.563 156.53 500.119 148.516 503.018C140.503 505.918 116.462 511.716 115.571 509.783C114.681 507.85 112.9 503.018 112.9 503.018C112.9 503.018 115.571 511.716 112.01 511.716C108.448 511.716 73.7224 505.918 74.6128 503.018C75.5032 500.119 77.284 478.858 77.284 478.858C77.284 478.858 82.6264 443.101 87.9688 437.302C89.515 435.691 90.7154 433.73 91.4848 431.559C92.2542 429.388 92.5738 427.059 92.4209 424.739H134.27Z" fill="#2F2E41"/>
<path d="M147.626 417.007C147.626 417.007 136.051 414.108 134.27 417.974C132.489 421.84 138.722 427.638 141.393 427.638C144.065 427.638 148.517 424.739 148.517 424.739L147.626 417.007Z" fill="#FFB9B9"/>
<path d="M123.585 334.862C132.437 334.862 139.612 327.074 139.612 317.467C139.612 307.859 132.437 300.071 123.585 300.071C114.734 300.071 107.558 307.859 107.558 317.467C107.558 327.074 114.734 334.862 123.585 334.862Z" fill="#FFB9B9"/>
<path d="M120.914 330.03C120.914 330.03 118.243 343.56 120.024 343.56C121.804 343.56 106.667 352.258 106.667 352.258L95.0921 350.325L91.5305 344.526C91.5305 344.526 110.229 330.996 110.229 323.265C110.229 315.534 120.914 330.03 120.914 330.03Z" fill="#FFB9B9"/>
<path d="M112.9 343.56C112.9 343.56 115.571 341.627 116.462 341.627H123.585C124.476 341.627 136.051 344.526 136.051 344.526L143.174 388.015C143.174 388.015 130.708 410.242 139.613 427.638C139.613 427.638 136.941 425.705 124.476 426.672C112.01 427.638 89.7497 430.537 88.8593 430.537C87.9689 430.537 87.9689 422.806 88.8593 420.873C89.7497 418.94 87.9689 419.907 87.9689 415.075C87.9689 410.243 85.2977 401.545 85.2977 401.545L72.832 352.258C72.832 352.258 88.8593 342.593 91.5306 343.56C94.2018 344.526 102.215 347.426 103.996 346.459C105.777 345.493 112.9 343.56 112.9 343.56Z" fill="#DE9E48"/>
<path d="M133.38 345.493L136.051 344.526C136.051 344.526 141.393 343.56 147.626 349.358C153.859 355.157 177.01 372.552 177.01 372.552C177.01 372.552 185.914 380.284 183.242 388.981C180.571 397.679 176.119 418.94 162.763 417.974C162.763 417.974 154.749 429.571 150.297 427.638C145.845 425.705 142.284 417.974 144.955 417.007C147.626 416.041 154.749 406.377 154.749 406.377L145.845 388.015H143.174L133.38 382.217L133.38 345.493Z" fill="#DE9E48"/>
<path d="M79.9552 351.291L72.832 352.258C72.832 352.258 66.5991 355.157 67.4895 367.72C68.3799 380.284 62.1471 437.302 64.8183 444.067C64.8183 444.067 55.9143 476.925 57.6951 477.892C59.4759 478.858 70.1608 484.656 69.2704 480.791C68.38 476.925 79.0648 449.866 79.0648 449.866C79.0648 449.866 91.5305 435.369 86.1881 415.075V398.646L79.9552 351.291Z" fill="#DE9E48"/>
<path d="M136.924 334.285L125.605 336.961L124.15 330.912L124.709 337.173L106.449 341.491L105.646 338.151L105.954 341.608L94.2586 344.373L91.7566 318.306C89.1844 307.609 98.5721 296.208 108.428 293.417L112.8 292.178C120.038 290.128 133.196 291.992 135.085 299.848C131.778 313.546 126.142 328.562 136.924 334.285Z" fill="#2F2E41"/>
</g>
<defs>
<clipPath id="clip0">
<rect width="825" height="673" fill="white"/>
</clipPath>
</defs>
</svg>
